<svg id="best-offer-star" xmlns="http://www.w3.org/2000/svg" width="64.072" height="76.671" viewBox="0 0 64.072 76.671">
  <path id="jonathan-borba-hl6uG9cHW5A-unsplash" d="M253,1238.59l32.173-19.168,31.9,19.168v38.615l-31.9,18.888L253,1277.205Z" transform="translate(-253 -1219.422)" fill="#2a3c5f"/>
  <g id="star" transform="translate(19.208 25.801)">
    <path id="Path_4959" data-name="Path 4959" d="M27.172,12.652,21.55,18.133l1.328,7.741a.9.9,0,0,1-1.31.951l-6.952-3.655L7.665,26.824a.9.9,0,0,1-1.31-.951l1.328-7.741L2.06,12.652a.9.9,0,0,1,.5-1.54l7.771-1.128,3.475-7.042a.94.94,0,0,1,1.619,0L18.9,9.984l7.771,1.128a.9.9,0,0,1,.5,1.54Z" transform="translate(-1.787 -2.48)" fill="#fff"/>
  </g>
</svg>
