<svg xmlns="http://www.w3.org/2000/svg" width="52.629" height="62.708" viewBox="0 0 52.629 62.708">
  <g id="carousel-arrow-left" transform="translate(4 4.662)">
    <g id="jonathan-borba-hl6uG9cHW5A-unsplash" transform="translate(-253 -1219.422)" fill="#91ab61">
      <path d="M 275.215087890625 1275.147338867188 L 274.2004699707031 1274.546630859375 L 251.9810791015625 1261.390869140625 L 251.0000305175781 1260.81005859375 L 251.0000305175781 1259.669921875 L 251.0000305175781 1232.773315429688 L 251.0000305175781 1231.641723632812 L 251.9699401855469 1231.058959960938 L 274.1893310546875 1217.7080078125 L 275.2150573730469 1217.091674804688 L 276.2430725097656 1217.704223632812 L 298.652587890625 1231.05517578125 L 299.6289367675781 1231.636840820312 L 299.6289367675781 1232.773315429688 L 299.6289367675781 1259.669921875 L 299.6289367675781 1260.81494140625 L 298.6414794921875 1261.394653320312 L 276.2319641113281 1274.550415039062 L 275.215087890625 1275.147338867188 Z" stroke="none"/>
      <path d="M 275.2194213867188 1219.42236328125 L 253.0000305175781 1232.773315429688 L 253.0000305175781 1259.669921875 L 275.2194213867188 1272.82568359375 L 297.6289367675781 1259.669921875 L 297.6289367675781 1232.773315429688 L 275.2194213867188 1219.42236328125 M 275.2106628417969 1214.761108398438 L 301.6289367675781 1230.500366210938 L 301.6289367675781 1261.960083007812 L 275.2107543945312 1277.469116210938 L 249.0000305175781 1261.9501953125 L 249.0000305175781 1230.51025390625 L 275.2106628417969 1214.761108398438 Z" stroke="none" fill="#fff"/>
    </g>
    <g id="layer1" transform="translate(12.348 21.257)">
      <path id="path9413" d="M19.241,298.58H3.347l2.978,2.978a.907.907,0,0,1-1.283,1.283L2.33,300.125.52,298.311a.9.9,0,0,1,0-1.276l4.522-4.527a.907.907,0,1,1,1.283,1.283L3.34,296.769H19.288a.906.906,0,1,1-.047,1.811Z" transform="translate(-0.257 -292.234)" fill="#fff"/>
    </g>
  </g>
</svg>
