<svg xmlns="http://www.w3.org/2000/svg" width="52.628" height="62.709" viewBox="0 0 52.628 62.709">
  <g id="carousel-arrow" transform="translate(-1009.865 -1480.772)">
    <g id="jonathan-borba-hl6uG9cHW5A-unsplash" transform="translate(760.865 266.012)" fill="#91ab61">
      <path d="M 275.4136352539062 1275.148193359375 L 274.396728515625 1274.551147460938 L 251.9874420166016 1261.395141601562 L 251 1260.8154296875 L 251 1259.67041015625 L 251 1232.7734375 L 251 1231.636962890625 L 251.9763336181641 1231.055297851562 L 274.3856506347656 1217.704223632812 L 275.4136657714844 1217.091674804688 L 276.4393920898438 1217.7080078125 L 298.6585693359375 1231.05908203125 L 299.6284790039062 1231.641967773438 L 299.6284790039062 1232.7734375 L 299.6284790039062 1259.67041015625 L 299.6284790039062 1260.810546875 L 298.6474609375 1261.391357421875 L 276.4282836914062 1274.54736328125 L 275.4136352539062 1275.148193359375 Z" stroke="none"/>
      <path d="M 275.4093017578125 1219.42236328125 L 253 1232.7734375 L 253 1259.67041015625 L 275.4093017578125 1272.826416015625 L 297.6284790039062 1259.67041015625 L 297.6284790039062 1232.7734375 L 275.4093017578125 1219.42236328125 M 275.4180603027344 1214.760986328125 L 301.6284790039062 1230.510375976562 L 301.6284790039062 1261.950561523438 L 275.41796875 1277.469848632812 L 249 1261.96044921875 L 249 1230.50048828125 L 275.4180603027344 1214.760986328125 Z" stroke="none" fill="#fff"/>
    </g>
    <g id="layer1" transform="translate(1026.213 1506.692)">
      <path id="path9413" d="M1.2,298.58H17.1l-2.978,2.978a.907.907,0,0,0,1.283,1.283l2.712-2.716,1.81-1.813a.9.9,0,0,0,0-1.276L15.4,292.508a.907.907,0,1,0-1.283,1.283l2.985,2.978H1.157A.906.906,0,1,0,1.2,298.58Z" transform="translate(-0.257 -292.234)" fill="#fff"/>
    </g>
  </g>
</svg>
