<svg xmlns="http://www.w3.org/2000/svg" width="71" height="72" viewBox="0 0 71 72">
  <path id="chat-border" d="M21.466,71.8a2.847,2.847,0,0,1-1.819-2.66V55.852H14.014A13.985,13.985,0,0,1,0,41.929v-28A13.788,13.788,0,0,1,2.448,6.059a1.07,1.07,0,0,1,1.481-.274,1.054,1.054,0,0,1,.276,1.472,11.689,11.689,0,0,0-2.075,6.668v28A11.859,11.859,0,0,0,14.014,53.736h6.167a1.593,1.593,0,0,1,1.6,1.586V69.136a.719.719,0,0,0,.473.692.727.727,0,0,0,.822-.182L37.66,54.235a1.607,1.607,0,0,1,1.163-.5H56.986A11.859,11.859,0,0,0,68.869,41.929v-28A11.859,11.859,0,0,0,56.986,2.117H14.014A11.836,11.836,0,0,0,6.95,4.429a1.07,1.07,0,0,1-1.49-.221,1.054,1.054,0,0,1,.222-1.481A13.962,13.962,0,0,1,14.014,0H56.986A13.985,13.985,0,0,1,71,13.924v28A13.985,13.985,0,0,1,56.986,55.852H39.054L24.625,71.1a2.875,2.875,0,0,1-2.092.9A2.912,2.912,0,0,1,21.466,71.8ZM33.931,44.007,20.2,30.362a9.391,9.391,0,0,1,0-13.326,9.537,9.537,0,0,1,13.411,0l1.827,1.815a.064.064,0,0,0,.048.02.066.066,0,0,0,.049-.02l1.857-1.845a9.538,9.538,0,0,1,13.412,0,9.391,9.391,0,0,1,0,13.326l-3.181,3.161a1.07,1.07,0,0,1-1.506,0,1.053,1.053,0,0,1,0-1.5l3.18-3.161a7.281,7.281,0,0,0,0-10.332,7.4,7.4,0,0,0-10.4,0L37.04,20.348a2.209,2.209,0,0,1-3.11,0L32.1,18.533a7.4,7.4,0,0,0-10.4,0,7.281,7.281,0,0,0,0,10.332L35.438,42.51a.064.064,0,0,0,.048.02.066.066,0,0,0,.048-.02l7.547-7.5a1.07,1.07,0,0,1,1.506,0,1.053,1.053,0,0,1,0,1.5l-7.547,7.5a2.209,2.209,0,0,1-3.11,0Z" transform="translate(0)"/>
</svg>
