<svg xmlns="http://www.w3.org/2000/svg" width="66.982" height="80.595" viewBox="0 0 66.982 80.595">
  <g id="doctor" transform="translate(-7.911 -1.998)">
    <path id="Path_5012" data-name="Path 5012" d="M39.3,46.991c-10.384-.338-12.874-9.229-13.407-12.1a4.507,4.507,0,0,1-2.525-1.6,5.074,5.074,0,0,1-.945-3.454,4.764,4.764,0,0,1,1.124-3.7,3.484,3.484,0,0,1,.839-.633,18.312,18.312,0,0,1-2.729-10.4c1.2-8.589,8.124-9.425,10.292-9.473a10.149,10.149,0,0,1,3.649-2.691,12.858,12.858,0,0,1,8.265-.461c5.367,1.4,8.947,4.088,10.645,7.988,2.418,5.542.3,11.922-.921,14.786a3.527,3.527,0,0,1,1.257.722,4.618,4.618,0,0,1,1.285,3.87,5.066,5.066,0,0,1-.944,3.454,4.514,4.514,0,0,1-2.526,1.6C52.122,37.762,49.637,46.652,39.3,46.991ZM26.306,27.337a1.558,1.558,0,0,0-1.112.4,2.744,2.744,0,0,0-.471,2.06,1.183,1.183,0,0,1-.008.23,2.843,2.843,0,0,0,.482,1.871,2.628,2.628,0,0,0,1.842.873,1.151,1.151,0,0,1,1.012,1.045c.038.428,1.059,10.543,11.247,10.877,10.132-.334,11.157-10.448,11.2-10.879a1.151,1.151,0,0,1,1.012-1.043,2.626,2.626,0,0,0,1.842-.873,2.848,2.848,0,0,0,.482-1.88,1.206,1.206,0,0,1-.008-.223,2.744,2.744,0,0,0-.519-2.114,1.747,1.747,0,0,0-1.25-.327,1.151,1.151,0,0,1-1.215-1.68c.043-.081,4.26-8.085,1.55-14.305-1.4-3.214-4.467-5.458-9.108-6.67a10.545,10.545,0,0,0-6.762.345,7.743,7.743,0,0,0-3.1,2.427,1.141,1.141,0,0,1-1.021.461c-.3-.024-7.348-.48-8.453,7.4h0S23.623,21.6,27.254,25.4a1.151,1.151,0,0,1,.219,1.266,1.09,1.09,0,0,1-1.09.68Z" transform="translate(2.077 0)" fill="#fff"/>
    <path id="Path_5013" data-name="Path 5013" d="M51.386,26.068a1.151,1.151,0,0,1-1.151-1.1c-.014-.3-.371-7.253-5.563-7.922A17.53,17.53,0,0,1,31.3,13.17c-1.468,1.1-4.851,4.46-4.2,11.618A1.151,1.151,0,0,1,24.812,25c-.954-10.5,5.789-14.146,6.076-14.3a1.151,1.151,0,0,1,1.329.189,15.376,15.376,0,0,0,12.234,3.86,1.287,1.287,0,0,1,.319-.012c5.853.609,7.641,6.9,7.768,10.132a1.151,1.151,0,0,1-1.1,1.2Z" transform="translate(2.544 1.297)" fill="#fff"/>
    <path id="Path_5014" data-name="Path 5014" d="M73.741,75.848H9.062A1.151,1.151,0,0,1,7.911,74.7V61.862A15.322,15.322,0,0,1,23.224,46.571h2.211a1.151,1.151,0,1,1,0,2.3H23.224a13.017,13.017,0,0,0-13.01,12.988V73.545H72.59V61.862A13,13,0,0,0,59.6,48.874H57.233a1.151,1.151,0,1,1,0-2.3H59.6A15.313,15.313,0,0,1,74.893,61.862V74.7A1.151,1.151,0,0,1,73.741,75.848Z" transform="translate(0 6.745)" fill="#fff"/>
    <path id="Path_5015" data-name="Path 5015" d="M40.493,76.355a1.151,1.151,0,0,1-1.139-1.323L44.014,44.2a1.151,1.151,0,0,1,1.47-.93l8.041,2.424a1.151,1.151,0,0,1,.7,1.612l-3.2,6.413,1.854,2.08A1.151,1.151,0,0,1,53,57.166L41.472,75.81A1.151,1.151,0,0,1,40.493,76.355Zm5.6-30.5L42.472,69.817l8.12-13.125-1.8-2.021a1.151,1.151,0,0,1-.172-1.279L51.555,47.5Z" transform="translate(4.756 6.237)" fill="#fff"/>
    <path id="Path_5016" data-name="Path 5016" d="M35.364,76.355a1.151,1.151,0,0,1-.98-.546L22.855,57.169A1.151,1.151,0,0,1,22.97,55.8l1.854-2.08-3.2-6.413a1.151,1.151,0,0,1,.7-1.612l8.041-2.424a1.151,1.151,0,0,1,1.469.93L36.5,75.036a1.151,1.151,0,0,1-1.135,1.319Zm-10.1-19.667,8.12,13.125L29.764,45.854,24.3,47.5l2.932,5.888a1.151,1.151,0,0,1-.17,1.279Z" transform="translate(2.058 6.238)" fill="#fff"/>
    <path id="Path_5017" data-name="Path 5017" d="M38.133,53.716a62.417,62.417,0,0,1-7.448-.451,1.151,1.151,0,1,1,.274-2.285,58.046,58.046,0,0,0,14.169,0,1.151,1.151,0,1,1,.288,2.284,58.141,58.141,0,0,1-7.283.452Z" transform="translate(3.288 7.41)" fill="#fff"/>
    <path id="Path_5018" data-name="Path 5018" d="M44.782,46.412a1.151,1.151,0,0,1-.921-.466c-1.711-2.313-2.021-6.9-2.049-7.412a1.151,1.151,0,0,1,1.082-1.216A1.164,1.164,0,0,1,44.109,38.4c.07,1.211.5,4.682,1.6,6.177a1.151,1.151,0,0,1-.921,1.835Z" transform="translate(5.13 5.345)" fill="#fff"/>
    <path id="Path_5019" data-name="Path 5019" d="M29.645,46.413a1.151,1.151,0,0,1-.921-1.835c1.108-1.5,1.532-4.967,1.6-6.177a1.153,1.153,0,1,1,2.3.134c-.029.515-.345,5.1-2.049,7.412a1.151,1.151,0,0,1-.935.466Z" transform="translate(3.115 5.344)" fill="#fff"/>
    <path id="Path_5020" data-name="Path 5020" d="M57.771,59.7a1.151,1.151,0,0,1-1.151-1.118c-.215-7.5-3.066-9.856-3.094-9.88a1.159,1.159,0,0,1-.2-1.612,1.144,1.144,0,0,1,1.595-.221c.152.115,3.75,2.909,4,11.646A1.151,1.151,0,0,1,57.805,59.7Z" transform="translate(6.836 6.756)" fill="#fff"/>
    <path id="Path_5021" data-name="Path 5021" d="M57.758,65.084a4.551,4.551,0,1,1,4.55-4.551,4.551,4.551,0,0,1-4.55,4.551Zm0-6.8a2.249,2.249,0,1,0,2.247,2.248,2.249,2.249,0,0,0-2.247-2.248Z" transform="translate(6.854 8.169)" fill="#fff"/>
    <path id="Path_5022" data-name="Path 5022" d="M16.241,59.692a1.151,1.151,0,0,1-1.151-1.07c-.627-8.836,4.241-11.661,4.449-11.777a1.151,1.151,0,1,1,1.132,2.006c-.175.1-3.8,2.341-3.285,9.609a1.151,1.151,0,0,1-1.067,1.23Z" transform="translate(1.078 6.764)" fill="#fff"/>
    <path id="Path_5023" data-name="Path 5023" d="M14.38,67.541a1.151,1.151,0,0,1-.921-.454,7.2,7.2,0,0,1-1.219-2.473,6.922,6.922,0,0,1,4.524-8.626,6.447,6.447,0,0,1,4.951.612,7.389,7.389,0,0,1,3.592,7.613,1.151,1.151,0,1,1-2.272-.378,5.091,5.091,0,0,0-2.448-5.227,4.167,4.167,0,0,0-3.2-.406A4.621,4.621,0,0,0,14.455,64a4.913,4.913,0,0,0,.836,1.692,1.151,1.151,0,0,1-.915,1.848Z" transform="translate(0.609 8.134)" fill="#fff"/>
    <path id="Path_5024" data-name="Path 5024" d="M22.9,64.262a.918.918,0,0,1-.137-.007l-1.3-.153a1.152,1.152,0,0,1,.272-2.288l1.3.154a1.151,1.151,0,0,1-.135,2.295Z" transform="translate(1.897 9.05)" fill="#fff"/>
    <path id="Path_5025" data-name="Path 5025" d="M14.211,66.37a1.151,1.151,0,0,1-.4-2.231l1.382-.51A1.152,1.152,0,0,1,16,65.787l-1.382.511a1.151,1.151,0,0,1-.405.071Z" transform="translate(0.779 9.315)" fill="#fff"/>
  </g>
</svg>
