<svg xmlns="http://www.w3.org/2000/svg" width="50.282" height="60" viewBox="0 0 50.282 60">
  <g id="envelope-hex" transform="translate(-1088.981 -59.615)">
    <path id="jonathan-borba-hl6uG9cHW5A-unsplash" d="M253,1234.422l25.177-15,25.105,14.661-.142,30.557-24.964,14.781L253,1264.641Z" transform="translate(835.981 -1159.808)" fill="#91ab61"/>
    <path id="email-icon" d="M1.776,0H28.6A1.744,1.744,0,0,1,30.33,1.739V20.176a1.726,1.726,0,0,1-.3.986.686.686,0,0,1-.163.247.646.646,0,0,1-.163.113,1.726,1.726,0,0,1-1.112.407H1.776A1.744,1.744,0,0,1,.05,20.2V1.739A1.744,1.744,0,0,1,1.776,0ZM1.7,19.443l9.071-9.426L1.7,2.353V19.443Zm10.437-8.249L2.447,20.58h25.4l-9.261-9.386-2.713,2.271h0a.666.666,0,0,1-.851,0ZM19.932,10l8.745,9.519V2.269ZM2.556,1.334,15.424,11.764l12.3-10.429Z" transform="translate(1099.109 79.181)" fill="#fff"/>
  </g>
</svg>
