<svg xmlns="http://www.w3.org/2000/svg" width="50.282" height="60" viewBox="0 0 50.282 60">
  <g id="hex-chat" transform="translate(-1171.115 -59.615)">
    <path id="hex" d="M253,1234.422l25.177-15,25.105,14.661-.142,30.557-24.964,14.781L253,1264.641Z" transform="translate(918.115 -1159.808)" fill="#91ab61"/>
    <g id="chat" transform="translate(1182.206 59.943)">
      <g id="Group_35887" data-name="Group 35887" transform="translate(0 16)">
        <path id="Path_5049" data-name="Path 5049" d="M14,16C6.278,16,0,21.539,0,28.349a11.508,11.508,0,0,0,3.21,7.873,5.006,5.006,0,0,1-1.323,4.717.824.824,0,0,0,.582,1.405,9.077,9.077,0,0,0,6.288-2.54A15.525,15.525,0,0,0,14,40.7c7.717,0,14.105-5.539,14.105-12.349S21.713,16,14,16ZM7.519,30.819a2.47,2.47,0,1,1,2.47-2.47A2.473,2.473,0,0,1,7.519,30.819Zm6.586,0a2.47,2.47,0,1,1,2.47-2.47A2.473,2.473,0,0,1,14.105,30.819Zm6.586,0a2.47,2.47,0,1,1,2.47-2.47A2.473,2.473,0,0,1,20.692,30.819Z" transform="translate(0 -16)" fill="#fff"/>
      </g>
    </g>
  </g>
</svg>
