<svg xmlns="http://www.w3.org/2000/svg" width="51.086" height="61.132" viewBox="0 0 51.086 61.132">
  <g id="hex-call-icon" transform="translate(-159.166 -640)">
    <path id="jonathan-borba-hl6uG9cHW5A-unsplash" d="M253,1234.705l25.652-15.283,25.434,15.283v30.789l-25.434,15.06L253,1265.494Z" transform="translate(-93.834 -579.423)" fill="#91ab61"/>
    <path id="add-contact" d="M11.258,4.924a.853.853,0,0,1,.853-.853h2.254V1.817a.853.853,0,1,1,1.706,0V4.071h2.254a.853.853,0,1,1,0,1.705H16.07V8.031a.853.853,0,0,1-1.706,0V5.776H12.11a.853.853,0,0,1-.853-.852Zm8.875,10.56V15.4a1.389,1.389,0,0,0-.7-1.162L15.988,12.25a1.4,1.4,0,0,0-1.916.513,2.364,2.364,0,0,1-1.541,1.208,2.259,2.259,0,0,1-1.861-.418A20.682,20.682,0,0,1,8.5,11.64,20.608,20.608,0,0,1,6.588,9.471a2.259,2.259,0,0,1-.419-1.86,2.361,2.361,0,0,1,1.21-1.54,1.408,1.408,0,0,0,.512-1.918L5.906.712a1.39,1.39,0,0,0-1.163-.7H4.655a1.442,1.442,0,0,0-.48.1L4.133.124A13.57,13.57,0,0,0,1.091,1.565,4.592,4.592,0,0,0,.272,6.18c.806,3.012,3.219,6.131,5.388,8.3s5.289,4.582,8.3,5.389a7.039,7.039,0,0,0,1.809.259,3.813,3.813,0,0,0,2.806-1.078,13.7,13.7,0,0,0,1.439-3.038l.016-.043,0-.005a1.427,1.427,0,0,0,.1-.48Z" transform="translate(174.636 659.393)" fill="#fff" fill-rule="evenodd"/>
  </g>
</svg>
