<svg xmlns="http://www.w3.org/2000/svg" width="254.936" height="279.839" viewBox="0 0 254.936 279.839">
  <g id="light-rings" transform="translate(-1744.983 -975.981)" opacity="0.05">
    <g id="Ellipse_1" data-name="Ellipse 1" transform="translate(34.505 49.205)" fill="rgba(29,33,62,0)" stroke-linejoin="round">
      <path d="M 1864.884765625 1205.615234375 C 1840.6474609375 1205.615234375 1817.25537109375 1196.638305664062 1799.017456054688 1180.338134765625 C 1794.582885742188 1176.374755859375 1790.477661132812 1171.989990234375 1786.815673828125 1167.305419921875 C 1783.1142578125 1162.570556640625 1779.82275390625 1157.47412109375 1777.032470703125 1152.15771484375 C 1771.239013671875 1141.119140625 1767.575317382812 1129.173706054688 1766.143432617188 1116.653198242188 C 1765.369140625 1109.8837890625 1765.270874023438 1103.040649414062 1765.851440429688 1096.313720703125 C 1766.417114257812 1089.758422851562 1767.633666992188 1083.234008789062 1769.467407226562 1076.921508789062 C 1771.267944335938 1070.723510742188 1773.68115234375 1064.667114257812 1776.64013671875 1058.92041015625 C 1779.571044921875 1053.228271484375 1783.062622070312 1047.790405273438 1787.01806640625 1042.7578125 C 1790.973266601562 1037.725341796875 1795.4248046875 1033.056762695312 1800.248779296875 1028.8818359375 C 1805.118774414062 1024.667236328125 1810.411376953125 1020.918640136719 1815.979614257812 1017.740295410156 C 1821.650390625 1014.50341796875 1827.665893554688 1011.825012207031 1833.85888671875 1009.779418945312 C 1840.213623046875 1007.680297851562 1846.834838867188 1006.221984863281 1853.538452148438 1005.444763183594 C 1857.343505859375 1005.003723144531 1861.202270507812 1004.780090332031 1865.007446289062 1004.780090332031 C 1889.244995117188 1004.780090332031 1912.637084960938 1013.757080078125 1930.874755859375 1030.057373046875 C 1935.309204101562 1034.020751953125 1939.414428710938 1038.40576171875 1943.076416015625 1043.09033203125 C 1946.777587890625 1047.8251953125 1950.069091796875 1052.921752929688 1952.859375 1058.238159179688 C 1958.652709960938 1069.27685546875 1962.316284179688 1081.222534179688 1963.748168945312 1093.743286132812 C 1964.5224609375 1100.512573242188 1964.620727539062 1107.355712890625 1964.040161132812 1114.08251953125 C 1963.474487304688 1120.6376953125 1962.257934570312 1127.162231445312 1960.424194335938 1133.474609375 C 1958.623657226562 1139.672485351562 1956.21044921875 1145.728881835938 1953.25146484375 1151.475463867188 C 1950.320556640625 1157.16748046875 1946.828857421875 1162.605346679688 1942.873413085938 1167.637817382812 C 1938.918212890625 1172.670166015625 1934.466674804688 1177.338745117188 1929.642578125 1181.513671875 C 1924.772583007812 1185.728271484375 1919.479858398438 1189.476806640625 1913.91162109375 1192.655151367188 C 1908.24072265625 1195.891967773438 1902.225219726562 1198.570434570312 1896.032104492188 1200.615966796875 C 1889.677124023438 1202.715087890625 1883.055908203125 1204.173461914062 1876.35205078125 1204.950805664062 C 1872.547607421875 1205.391723632812 1868.689331054688 1205.615234375 1864.884765625 1205.615234375 Z" stroke="none"/>
      <path d="M 1865.00732421875 1005.780029296875 C 1861.240600585938 1005.780029296875 1857.420654296875 1006.00146484375 1853.653686523438 1006.438110351562 C 1847.017333984375 1007.20751953125 1840.462890625 1008.651123046875 1834.172485351562 1010.728881835938 C 1828.042602539062 1012.753662109375 1822.08837890625 1015.404907226562 1816.475341796875 1018.608764648438 C 1810.96337890625 1021.755004882812 1805.72412109375 1025.465698242188 1800.903198242188 1029.637939453125 C 1796.127319335938 1033.771240234375 1791.72021484375 1038.393310546875 1787.804321289062 1043.375732421875 C 1783.888061523438 1048.358520507812 1780.431030273438 1053.742431640625 1777.529174804688 1059.378173828125 C 1774.599609375 1065.06787109375 1772.210327148438 1071.064086914062 1770.427734375 1077.200439453125 C 1768.6123046875 1083.450073242188 1767.40771484375 1089.90966796875 1766.84765625 1096.399780273438 C 1766.27294921875 1103.060302734375 1766.370239257812 1109.836303710938 1767.136962890625 1116.53955078125 C 1768.554809570312 1128.936889648438 1772.182006835938 1140.764282226562 1777.91796875 1151.692993164062 C 1780.680297851562 1156.956298828125 1783.93896484375 1162.001831054688 1787.603515625 1166.689575195312 C 1791.22900390625 1171.327392578125 1795.29345703125 1175.668701171875 1799.683837890625 1179.592529296875 C 1817.738159179688 1195.728759765625 1840.893676757812 1204.615234375 1864.884765625 1204.615234375 C 1868.651000976562 1204.615234375 1872.470458984375 1204.393920898438 1876.236938476562 1203.957397460938 C 1882.873413085938 1203.18798828125 1889.427856445312 1201.744384765625 1895.718383789062 1199.66650390625 C 1901.848388671875 1197.6416015625 1907.802612304688 1194.990478515625 1913.415893554688 1191.78662109375 C 1918.927856445312 1188.640380859375 1924.167114257812 1184.9296875 1928.988159179688 1180.757446289062 C 1933.76416015625 1176.624267578125 1938.171264648438 1172.002197265625 1942.087158203125 1167.019897460938 C 1946.00341796875 1162.037231445312 1949.46044921875 1156.6533203125 1952.362426757812 1151.017578125 C 1955.2919921875 1145.328125 1957.681274414062 1139.331909179688 1959.4638671875 1133.195556640625 C 1961.279296875 1126.946044921875 1962.48388671875 1120.486572265625 1963.0439453125 1113.99658203125 C 1963.61865234375 1107.336059570312 1963.521362304688 1100.560180664062 1962.754638671875 1093.85693359375 C 1961.336791992188 1081.459350585938 1957.709594726562 1069.6318359375 1951.973876953125 1058.702880859375 C 1949.211547851562 1053.439575195312 1945.952880859375 1048.393920898438 1942.288452148438 1043.706176757812 C 1938.662963867188 1039.068237304688 1934.5986328125 1034.726928710938 1930.208374023438 1030.802978515625 C 1912.154174804688 1014.666748046875 1888.998657226562 1005.780029296875 1865.00732421875 1005.780029296875 M 1865.007446289062 1003.780029296875 C 1915.365844726562 1003.780029296875 1958.827392578125 1041.914794921875 1964.74169921875 1093.629638671875 C 1971.10595703125 1149.270263671875 1931.58349609375 1199.553955078125 1876.46728515625 1205.944091796875 C 1872.578491210938 1206.394775390625 1868.70751953125 1206.615234375 1864.884765625 1206.615234375 C 1814.526977539062 1206.615234375 1771.064208984375 1168.480712890625 1765.14990234375 1116.766845703125 C 1758.78564453125 1061.125732421875 1798.30810546875 1010.841064453125 1853.42333984375 1004.451416015625 C 1857.312133789062 1004.000610351562 1861.1845703125 1003.780029296875 1865.007446289062 1003.780029296875 Z" stroke="none" fill="#fff"/>
    </g>
    <g id="Ellipse_1_copy" data-name="Ellipse 1 copy" transform="translate(0 0)" fill="rgba(29,33,62,0)" stroke-linejoin="round">
      <path d="M 1845.388549804688 1177.817504882812 C 1821.1533203125 1177.817504882812 1797.761962890625 1168.839965820312 1779.5234375 1152.53857421875 C 1775.0888671875 1148.575073242188 1770.983520507812 1144.18994140625 1767.321411132812 1139.50537109375 C 1763.619995117188 1134.770263671875 1760.328369140625 1129.673828125 1757.537963867188 1124.357421875 C 1751.744262695312 1113.318725585938 1748.08056640625 1101.37353515625 1746.648803710938 1088.853637695312 C 1745.874755859375 1082.08447265625 1745.776733398438 1075.241333007812 1746.357299804688 1068.5146484375 C 1746.923095703125 1061.95947265625 1748.139892578125 1055.43505859375 1749.9736328125 1049.122680664062 C 1751.774169921875 1042.9248046875 1754.1875 1036.868408203125 1757.146362304688 1031.121826171875 C 1760.077270507812 1025.4296875 1763.568969726562 1019.991821289062 1767.524291992188 1014.959228515625 C 1771.4794921875 1009.926818847656 1775.930908203125 1005.25830078125 1780.755004882812 1001.083312988281 C 1785.624877929688 996.86865234375 1790.91748046875 993.1200561523438 1796.485717773438 989.9417724609375 C 1802.156494140625 986.7048950195312 1808.171997070312 984.0264282226562 1814.364990234375 981.9808349609375 C 1820.719848632812 979.8817138671875 1827.341064453125 978.42333984375 1834.044799804688 977.6461791992188 C 1837.849365234375 977.2052612304688 1841.70751953125 976.981689453125 1845.51220703125 976.981689453125 C 1869.749755859375 976.981689453125 1893.142333984375 985.9589233398438 1911.380493164062 1002.259765625 C 1915.815063476562 1006.223205566406 1919.920288085938 1010.608215332031 1923.582397460938 1015.292846679688 C 1927.28369140625 1020.027893066406 1930.5751953125 1025.124389648438 1933.365478515625 1030.440795898438 C 1939.159057617188 1041.479614257812 1942.822631835938 1053.425170898438 1944.254516601562 1065.945678710938 C 1945.028686523438 1072.714965820312 1945.126831054688 1079.55810546875 1944.546264648438 1086.284790039062 C 1943.980590820312 1092.840087890625 1942.763916015625 1099.364501953125 1940.930053710938 1105.676879882812 C 1939.129638671875 1111.874755859375 1936.71630859375 1117.93115234375 1933.75732421875 1123.677856445312 C 1930.826416015625 1129.369873046875 1927.334838867188 1134.807861328125 1923.37939453125 1139.84033203125 C 1919.424194335938 1144.872802734375 1914.97265625 1149.541259765625 1910.148681640625 1153.716186523438 C 1905.278686523438 1157.930908203125 1899.986083984375 1161.679321289062 1894.417846679688 1164.857666015625 C 1888.746948242188 1168.094482421875 1882.7314453125 1170.772827148438 1876.538452148438 1172.818359375 C 1870.183471679688 1174.917358398438 1863.562255859375 1176.375610351562 1856.858520507812 1177.152587890625 C 1853.053100585938 1177.59375 1849.194091796875 1177.817504882812 1845.388549804688 1177.817504882812 Z" stroke="none"/>
      <path d="M 1845.51220703125 977.981689453125 C 1841.745849609375 977.981689453125 1837.926391601562 978.2030029296875 1834.160034179688 978.6395263671875 C 1827.523559570312 979.408935546875 1820.969116210938 980.8525390625 1814.678588867188 982.930419921875 C 1808.548706054688 984.9552001953125 1802.594482421875 987.6063232421875 1796.9814453125 990.8101806640625 C 1791.469482421875 993.9564208984375 1786.230224609375 997.667236328125 1781.409423828125 1001.839477539062 C 1776.633422851562 1005.972778320312 1772.226318359375 1010.594848632812 1768.310424804688 1015.5771484375 C 1764.394287109375 1020.559936523438 1760.937255859375 1025.94384765625 1758.035400390625 1031.57958984375 C 1755.105834960938 1037.269165039062 1752.716552734375 1043.265380859375 1750.933959960938 1049.401611328125 C 1749.118408203125 1055.651245117188 1747.913818359375 1062.110717773438 1747.353637695312 1068.600708007812 C 1746.778686523438 1075.261108398438 1746.875854492188 1082.036987304688 1747.642333984375 1088.739990234375 C 1749.06005859375 1101.13671875 1752.687377929688 1112.963745117188 1758.423461914062 1123.892700195312 C 1761.185913085938 1129.156005859375 1764.444702148438 1134.20166015625 1768.109252929688 1138.889404296875 C 1771.73486328125 1143.527587890625 1775.79931640625 1147.868896484375 1780.189819335938 1151.79296875 C 1798.244873046875 1167.930297851562 1821.399536132812 1176.817504882812 1845.388549804688 1176.817504882812 C 1849.15576171875 1176.817504882812 1852.97607421875 1176.596069335938 1856.743286132812 1176.159301757812 C 1863.379760742188 1175.39013671875 1869.934204101562 1173.946533203125 1876.224731445312 1171.868774414062 C 1882.354736328125 1169.843994140625 1888.308959960938 1167.192993164062 1893.922119140625 1163.989135742188 C 1899.43408203125 1160.843017578125 1904.67333984375 1157.13232421875 1909.494262695312 1152.960083007812 C 1914.270141601562 1148.826782226562 1918.67724609375 1144.204833984375 1922.59326171875 1139.222412109375 C 1926.509399414062 1134.23974609375 1929.966430664062 1128.855712890625 1932.868286132812 1123.219970703125 C 1935.7978515625 1117.530395507812 1938.187133789062 1111.5341796875 1939.9697265625 1105.39794921875 C 1941.785278320312 1099.148315429688 1942.989868164062 1092.688842773438 1943.549926757812 1086.198852539062 C 1944.124877929688 1079.538330078125 1944.027587890625 1072.762451171875 1943.260986328125 1066.059326171875 C 1941.843139648438 1053.661865234375 1938.215942382812 1041.83447265625 1932.47998046875 1030.905517578125 C 1929.717651367188 1025.642211914062 1926.458984375 1020.596557617188 1922.794555664062 1015.90869140625 C 1919.1689453125 1011.270751953125 1915.1044921875 1006.929321289062 1910.714111328125 1003.00537109375 C 1892.659423828125 986.86865234375 1869.503662109375 977.981689453125 1845.51220703125 977.981689453125 M 1845.512084960938 975.981689453125 C 1895.871337890625 975.981689453125 1939.333740234375 1014.1181640625 1945.248046875 1065.83203125 C 1951.611328125 1121.47216796875 1912.08984375 1171.75732421875 1856.9736328125 1178.14599609375 C 1801.858032226562 1184.5361328125 1752.0185546875 1144.60791015625 1745.6552734375 1088.96728515625 C 1739.29296875 1033.32763671875 1778.8134765625 983.04248046875 1833.9296875 976.65283203125 C 1837.818603515625 976.2021484375 1841.689208984375 975.981689453125 1845.512084960938 975.981689453125 Z" stroke="none" fill="#fff"/>
    </g>
  </g>
</svg>
