<svg xmlns="http://www.w3.org/2000/svg" width="81" height="81" viewBox="0 0 81 81">
  <g id="new-tech-icon" transform="translate(-1365 -1100)">
    <g id="Forma_1" data-name="Forma 1" transform="translate(1365 1100)">
      <path id="Forma_1-2" data-name="Forma 1" d="M4.05,81A4.05,4.05,0,0,1,0,76.95V4.05A4.05,4.05,0,0,1,4.05,0h37.8A4.05,4.05,0,0,1,45.9,4.05V50.6A12.142,12.142,0,0,0,64.8,40.5V39.081A14.863,14.863,0,0,1,51.3,24.3V4.05A1.35,1.35,0,0,1,52.65,2.7h2.7V1.35A1.35,1.35,0,0,1,56.7,0h4.05a2.7,2.7,0,0,1,2.7,2.7V5.4a2.7,2.7,0,0,1-2.7,2.7H56.7a1.35,1.35,0,0,1-1.35-1.35V5.4H54V24.3a12.15,12.15,0,0,0,24.3,0V5.4H76.95V6.75A1.35,1.35,0,0,1,75.6,8.1H71.55a2.7,2.7,0,0,1-2.7-2.7V2.7A2.7,2.7,0,0,1,71.55,0H75.6a1.35,1.35,0,0,1,1.35,1.35V2.7h2.7A1.35,1.35,0,0,1,81,4.05V24.3A14.863,14.863,0,0,1,67.5,39.081V40.5A14.824,14.824,0,0,1,45.9,53.711V76.95A4.05,4.05,0,0,1,41.85,81ZM2.7,76.95A1.35,1.35,0,0,0,4.05,78.3h37.8a1.35,1.35,0,0,0,1.35-1.35V67.5H8.1V64.8H43.2V51.947A14.832,14.832,0,0,1,37.8,40.5V28.35a6.75,6.75,0,1,0-13.5,0v5.535a6.75,6.75,0,1,1-2.7,0V28.35a9.45,9.45,0,1,1,18.9,0V40.5a12.09,12.09,0,0,0,2.7,7.619V4.05A1.35,1.35,0,0,0,41.85,2.7H4.05A1.35,1.35,0,0,0,2.7,4.05V10.8H37.8v2.7H2.7ZM18.9,40.5a4.05,4.05,0,1,0,4.05-4.05A4.05,4.05,0,0,0,18.9,40.5ZM71.55,5.4h2.7V2.7h-2.7Zm-13.5,0h2.7V2.7h-2.7ZM21.6,74.25v-2.7h2.7v2.7ZM25.65,62.1V59.4h10.8v2.7Zm5.4-5.4V54h5.4v2.7Zm-5.4,0V54h2.7v2.7ZM5.4,22.95v-5.4A1.35,1.35,0,0,1,6.75,16.2h5.4v2.7H8.1v4.05ZM17.55,8.1V5.4h2.7V8.1Zm-8.1,0V5.4h2.7V8.1Z" fill="#fff"/>
    </g>
    <path id="Color_Overlay" data-name="Color Overlay" d="M1369.05,1181a4.05,4.05,0,0,1-4.05-4.05v-72.9a4.05,4.05,0,0,1,4.05-4.05h37.8a4.05,4.05,0,0,1,4.05,4.05V1150.6a12.142,12.142,0,0,0,18.9-10.1v-1.418a14.863,14.863,0,0,1-13.5-14.782v-20.25a1.35,1.35,0,0,1,1.35-1.35h2.7v-1.35a1.35,1.35,0,0,1,1.35-1.35h4.05a2.7,2.7,0,0,1,2.7,2.7v2.7a2.7,2.7,0,0,1-2.7,2.7h-4.05a1.349,1.349,0,0,1-1.35-1.35v-1.35H1419v18.9a12.15,12.15,0,1,0,24.3,0v-18.9h-1.35v1.35a1.35,1.35,0,0,1-1.35,1.35h-4.05a2.7,2.7,0,0,1-2.7-2.7v-2.7a2.7,2.7,0,0,1,2.7-2.7h4.05a1.35,1.35,0,0,1,1.35,1.35v1.35h2.7a1.351,1.351,0,0,1,1.35,1.35v20.25a14.864,14.864,0,0,1-13.5,14.782v1.418a14.824,14.824,0,0,1-21.6,13.211v23.239a4.05,4.05,0,0,1-4.05,4.05Zm-1.35-4.05a1.349,1.349,0,0,0,1.35,1.35h37.8a1.35,1.35,0,0,0,1.35-1.35v-9.45h-35.1v-2.7h35.1v-12.853a14.828,14.828,0,0,1-5.4-11.447v-12.15a6.75,6.75,0,0,0-13.5,0v5.535a6.75,6.75,0,1,1-2.7,0v-5.535a9.45,9.45,0,1,1,18.9,0v12.15a12.087,12.087,0,0,0,2.7,7.619V1104.05a1.35,1.35,0,0,0-1.35-1.35h-37.8a1.35,1.35,0,0,0-1.35,1.35v6.75h35.1v2.7h-35.1Zm16.2-36.45a4.05,4.05,0,1,0,4.05-4.05A4.05,4.05,0,0,0,1383.9,1140.5Zm52.65-35.1h2.7v-2.7h-2.7Zm-13.5,0h2.7v-2.7h-2.7Zm-36.45,68.85v-2.7h2.7v2.7Zm4.05-12.15v-2.7h10.8v2.7Zm5.4-5.4V1154h5.4v2.7Zm-5.4,0V1154h2.7v2.7Zm-20.25-33.75v-5.4a1.35,1.35,0,0,1,1.349-1.35h5.4v2.7h-4.05v4.05Zm12.15-14.85v-2.7h2.7v2.7Zm-8.1,0v-2.7h2.7v2.7Z" fill="#fff"/>
  </g>
</svg>
