<svg xmlns="http://www.w3.org/2000/svg" width="97.005" height="101.004" viewBox="0 0 97.005 101.004">
  <g id="package-right-shape" transform="translate(-126.992 -1916.997)">
    <g id="Ellipse_1_copy_3" data-name="Ellipse 1 copy 3" transform="translate(1 -4382)" fill="rgba(29,33,62,0)" stroke-linejoin="round">
      <path d="M 185.4810333251953 6372.26416015625 C 181.9087982177734 6372.26416015625 178.3579711914062 6371.74169921875 174.9271850585938 6370.71142578125 C 171.5236053466797 6369.689453125 168.2965240478516 6368.18505859375 165.3356170654297 6366.2412109375 C 159.1943359375 6362.20849609375 154.4872894287109 6356.4814453125 151.7233428955078 6349.6796875 C 149.8956756591797 6345.18212890625 149.0071563720703 6340.46337890625 149.0824584960938 6335.654296875 C 149.1551971435547 6331.00830078125 150.1195831298828 6326.47021484375 151.9487915039062 6322.1650390625 C 153.7965698242188 6317.81689453125 156.4323120117188 6313.9267578125 159.7828521728516 6310.603515625 C 163.2519073486328 6307.16259765625 167.3373107910156 6304.4853515625 171.925537109375 6302.646484375 C 176.310302734375 6300.888671875 180.9088287353516 6299.99755859375 185.5933685302734 6299.99755859375 C 189.1655883789062 6299.99755859375 192.7164306640625 6300.52001953125 196.1472473144531 6301.55029296875 C 199.5508728027344 6302.57275390625 202.7779846191406 6304.07666015625 205.7389373779297 6306.02099609375 C 211.8803100585938 6310.0537109375 216.5874176025391 6315.7802734375 219.3513641357422 6322.58203125 C 221.1790313720703 6327.07958984375 222.0675506591797 6331.798828125 221.9922637939453 6336.60791015625 C 221.9195251464844 6341.25341796875 220.9551239013672 6345.7919921875 219.1259002685547 6350.0966796875 C 217.2781372070312 6354.4453125 214.6423645019531 6358.3349609375 211.2918548583984 6361.658203125 C 207.8227844238281 6365.09912109375 203.7373962402344 6367.7763671875 199.1491546630859 6369.615234375 C 194.7642822265625 6371.373046875 190.1656646728516 6372.26416015625 185.4810333251953 6372.26416015625 Z" stroke="none"/>
      <path d="M 185.4810485839844 6371.26416015625 C 190.0376281738281 6371.26416015625 194.5110473632812 6370.39697265625 198.7770843505859 6368.68701171875 C 203.2404479980469 6366.89794921875 207.2140960693359 6364.29443359375 210.5876312255859 6360.9482421875 C 213.8456726074219 6357.716796875 216.4087066650391 6353.93408203125 218.2055358886719 6349.70556640625 C 219.9840240478516 6345.52001953125 220.9216613769531 6341.10791015625 220.9923858642578 6336.59228515625 C 221.0655670166016 6331.91796875 220.2017517089844 6327.3310546875 218.4249420166016 6322.95849609375 C 215.7376708984375 6316.345703125 211.1611328125 6310.77783203125 205.1900482177734 6306.85693359375 C 202.3098907470703 6304.9658203125 199.1706848144531 6303.50244140625 195.8596343994141 6302.50830078125 C 192.5221710205078 6301.505859375 189.0680999755859 6300.99755859375 185.5933685302734 6300.99755859375 C 181.0368499755859 6300.99755859375 176.5635223388672 6301.86474609375 172.297607421875 6303.57470703125 C 167.8342437744141 6305.36376953125 163.8606109619141 6307.96728515625 160.487060546875 6311.3134765625 C 157.2290191650391 6314.544921875 154.6659851074219 6318.32763671875 152.8691558837891 6322.55615234375 C 151.0906677246094 6326.74169921875 150.1530456542969 6331.15380859375 150.0823211669922 6335.669921875 C 150.0091400146484 6340.34375 150.8729553222656 6344.9306640625 152.6497802734375 6349.30322265625 C 155.3370361328125 6355.91650390625 159.9135131835938 6361.484375 165.8845062255859 6365.4052734375 C 168.7646179199219 6367.29638671875 171.9037933349609 6368.75927734375 175.2148132324219 6369.75390625 C 178.5522308349609 6370.755859375 182.0062866210938 6371.26416015625 185.4810485839844 6371.26416015625 M 185.4810333251953 6373.26416015625 C 170.6722106933594 6373.26416015625 156.6664581298828 6364.5009765625 150.7969055175781 6350.05615234375 C 143.0736999511719 6331.05078125 152.3668060302734 6309.40869140625 171.5534973144531 6301.71826171875 C 176.1580963134766 6299.87255859375 180.9171447753906 6298.99755859375 185.5933685302734 6298.99755859375 C 200.4021911621094 6298.99755859375 214.4082336425781 6307.76123046875 220.2778015136719 6322.20556640625 C 228.0010070800781 6341.21142578125 218.7079010009766 6362.85302734375 199.5211944580078 6370.54345703125 C 194.9165954589844 6372.38916015625 190.1572570800781 6373.26416015625 185.4810333251953 6373.26416015625 Z" stroke="none" fill="#2a3c5f"/>
    </g>
    <g id="Ellipse_1_copy_3-2" data-name="Ellipse 1 copy 3" transform="translate(1 -4382)" fill="rgba(29,33,62,0)" stroke-linejoin="round">
      <path d="M 163.3955230712891 6399.001953125 C 159.8232727050781 6399.001953125 156.2724151611328 6398.4794921875 152.8415679931641 6397.44921875 C 149.4379119873047 6396.42724609375 146.2107849121094 6394.92333984375 143.2497863769531 6392.97900390625 C 137.1083374023438 6388.9462890625 132.4011840820312 6383.2197265625 129.6372375488281 6376.41796875 C 127.8095626831055 6371.92041015625 126.9210510253906 6367.201171875 126.9963531494141 6362.39208984375 C 127.0691070556641 6357.74609375 128.0334930419922 6353.2080078125 129.8627471923828 6348.90283203125 C 131.7105255126953 6344.5546875 134.3462677001953 6340.66455078125 137.6967926025391 6337.341796875 C 141.1658325195312 6333.90087890625 145.2512054443359 6331.2236328125 149.8394622802734 6329.384765625 C 154.2244415283203 6327.626953125 158.8231811523438 6326.73583984375 163.5079193115234 6326.73583984375 C 167.0798034667969 6326.73583984375 170.6304321289062 6327.25830078125 174.0612030029297 6328.28857421875 C 177.4647521972656 6329.31103515625 180.6918640136719 6330.81494140625 183.6528778076172 6332.75927734375 C 189.7944946289062 6336.7919921875 194.5016174316406 6342.5185546875 197.2653656005859 6349.31982421875 C 199.0930328369141 6353.8173828125 199.9815368652344 6358.53662109375 199.9062194824219 6363.345703125 C 199.8334350585938 6367.99169921875 198.8690185546875 6372.5302734375 197.0397338867188 6376.8349609375 C 195.1919403076172 6381.18359375 192.5561981201172 6385.0732421875 189.2057037353516 6388.396484375 C 185.7366790771484 6391.83740234375 181.6513366699219 6394.5146484375 177.0631561279297 6396.353515625 C 172.6784515380859 6398.11083984375 168.0799865722656 6399.001953125 163.3955230712891 6399.001953125 Z" stroke="none"/>
      <path d="M 163.3955078125 6398.001953125 C 167.9519500732422 6398.001953125 172.4252166748047 6397.13525390625 176.6911010742188 6395.42529296875 C 181.1544036865234 6393.63623046875 185.1279907226562 6391.03271484375 188.5014801025391 6387.6865234375 C 191.7594909667969 6384.455078125 194.3225250244141 6380.6728515625 196.1193542480469 6376.44384765625 C 197.8979187011719 6372.25830078125 198.8355865478516 6367.84619140625 198.9063415527344 6363.330078125 C 198.9795532226562 6358.65576171875 198.1157531738281 6354.06884765625 196.3389434814453 6349.6962890625 C 193.6519012451172 6343.08349609375 189.0753173828125 6337.51611328125 183.10400390625 6333.59521484375 C 180.2237701416016 6331.7041015625 177.0845642089844 6330.24072265625 173.7735595703125 6329.24658203125 C 170.4361572265625 6328.244140625 166.9822998046875 6327.73583984375 163.5079040527344 6327.73583984375 C 158.9512176513672 6327.73583984375 154.4776763916016 6328.60302734375 150.2115173339844 6330.31298828125 C 145.7481384277344 6332.10205078125 141.7745056152344 6334.70556640625 138.4010009765625 6338.0517578125 C 135.1429595947266 6341.283203125 132.5799255371094 6345.0654296875 130.7830963134766 6349.2939453125 C 129.0045928955078 6353.4794921875 128.0669555664062 6357.8916015625 127.996223449707 6362.40771484375 C 127.9230346679688 6367.08203125 128.7868499755859 6371.6689453125 130.5636596679688 6376.04150390625 C 133.2509155273438 6382.654296875 137.8274993896484 6388.22216796875 143.7986602783203 6392.14306640625 C 146.6788482666016 6394.0341796875 149.8180999755859 6395.49755859375 153.1291809082031 6396.49169921875 C 156.4666748046875 6397.494140625 159.9207611083984 6398.001953125 163.3955078125 6398.001953125 M 163.3955230712891 6400.001953125 C 148.5866546630859 6400.001953125 134.5803680419922 6391.23876953125 128.7108001708984 6376.79443359375 C 120.9875946044922 6357.7880859375 130.2807006835938 6336.14697265625 149.4674072265625 6328.45654296875 C 168.6540832519531 6320.765625 190.4687194824219 6329.93798828125 198.1918182373047 6348.943359375 C 205.9149017333984 6367.94921875 196.6219024658203 6389.59130859375 177.4351959228516 6397.28173828125 C 172.8305969238281 6399.12744140625 168.0717468261719 6400.001953125 163.3955230712891 6400.001953125 Z" stroke="none" fill="#91ab61"/>
    </g>
  </g>
</svg>
