<svg id="send-arrow-icon" xmlns="http://www.w3.org/2000/svg" width="61.363" height="73.429" viewBox="0 0 61.363 73.429">
  <path id="jonathan-borba-hl6uG9cHW5A-unsplash" d="M253,1237.779l30.812-18.357,30.551,18.357v36.982l-30.551,18.089L253,1274.762Z" transform="translate(-253 -1219.422)" fill="#91ab62"/>
  <g id="layer1" transform="translate(16.979 29.229)">
    <path id="path9413" d="M1.559,300.96H23.413l-4.094,4.094a1.247,1.247,0,0,0,1.764,1.764l3.729-3.734L27.3,300.59a1.244,1.244,0,0,0,0-1.754l-6.218-6.225a1.247,1.247,0,1,0-1.764,1.764l4.1,4.094H1.5a1.246,1.246,0,1,0,.064,2.491Z" transform="translate(-0.257 -292.234)" fill="#fff"/>
  </g>
</svg>
