<svg id="telephone" xmlns="http://www.w3.org/2000/svg" width="21.386" height="21.467" viewBox="0 0 21.386 21.467">
  <path id="Path_5050" data-name="Path 5050" d="M5.245,14.27A22.774,22.774,0,0,0,12.821,20.2a11.79,11.79,0,0,0,4.239,1.254c.1,0,.2.009.3.009a3.51,3.51,0,0,0,2.722-1.17.1.1,0,0,0,.018-.022,11.462,11.462,0,0,1,.859-.89c.209-.2.423-.409.627-.623a2.148,2.148,0,0,0-.009-3.2l-2.673-2.673a2.164,2.164,0,0,0-1.566-.721,2.237,2.237,0,0,0-1.584.716l-1.592,1.592c-.147-.085-.3-.16-.44-.231a5.5,5.5,0,0,1-.489-.267,16.853,16.853,0,0,1-4.026-3.665A9.705,9.705,0,0,1,7.848,8.145c.418-.378.81-.774,1.188-1.161.133-.138.271-.276.409-.414a2.28,2.28,0,0,0,.738-1.6,2.262,2.262,0,0,0-.738-1.6L8.119,2.042c-.156-.156-.3-.307-.454-.463-.294-.3-.6-.614-.9-.894A2.218,2.218,0,0,0,5.2,0,2.283,2.283,0,0,0,3.613.689L1.949,2.353A3.418,3.418,0,0,0,.931,4.542,8.233,8.233,0,0,0,1.549,8.1,20.7,20.7,0,0,0,5.245,14.27ZM2.016,4.635a2.353,2.353,0,0,1,.707-1.512L4.378,1.468A1.2,1.2,0,0,1,5.2,1.09a1.137,1.137,0,0,1,.8.387c.3.276.578.565.881.872.151.156.307.311.463.472L8.666,4.146a1.208,1.208,0,0,1,.418.832,1.208,1.208,0,0,1-.418.832c-.138.138-.276.28-.414.418-.414.418-.8.814-1.228,1.192L7,7.442a.87.87,0,0,0-.222.988c0,.013.009.022.013.036A10.469,10.469,0,0,0,8.355,11a17.788,17.788,0,0,0,4.288,3.906,6.367,6.367,0,0,0,.587.32,5.5,5.5,0,0,1,.489.267l.049.027a.93.93,0,0,0,.431.111.943.943,0,0,0,.663-.3l1.664-1.664a1.177,1.177,0,0,1,.814-.4,1.117,1.117,0,0,1,.787.4l2.682,2.678a1.073,1.073,0,0,1-.013,1.677c-.187.2-.383.391-.592.592a12.81,12.81,0,0,0-.93.965,2.442,2.442,0,0,1-1.908.81c-.076,0-.156,0-.231-.009A10.711,10.711,0,0,1,13.3,19.234a21.635,21.635,0,0,1-7.211-5.649A19.816,19.816,0,0,1,2.576,7.735,7.174,7.174,0,0,1,2.016,4.635Z" transform="translate(-0.912 0)" fill="#081839"/>
</svg>
