<svg xmlns="http://www.w3.org/2000/svg" width="92.033" height="101.022" viewBox="0 0 92.033 101.022">
  <g id="tr-shape" transform="translate(-1697.967 -3350.996)">
    <g id="Ellipse_1" data-name="Ellipse 1" transform="translate(-47.016 2375.014)" fill="rgba(29,33,62,0)" stroke-linejoin="round">
      <path d="M 1800.724365234375 1076.004028320312 C 1792.131958007812 1076.004028320312 1783.838500976562 1072.821044921875 1777.371948242188 1067.04150390625 C 1770.853271484375 1061.215454101562 1766.712890625 1053.193969726562 1765.71337890625 1044.454833984375 C 1765.1669921875 1039.677490234375 1765.563598632812 1034.936157226562 1766.892211914062 1030.362548828125 C 1768.175537109375 1025.944946289062 1770.269775390625 1021.868408203125 1773.116821289062 1018.245971679688 C 1775.96337890625 1014.624328613281 1779.41845703125 1011.639587402344 1783.386474609375 1009.374755859375 C 1787.493286132812 1007.030578613281 1791.973388671875 1005.564086914062 1796.7021484375 1005.015869140625 C 1798.051391601562 1004.859497070312 1799.419677734375 1004.780212402344 1800.768798828125 1004.780212402344 C 1809.361206054688 1004.780212402344 1817.654663085938 1007.963195800781 1824.121215820312 1013.742797851562 C 1830.639770507812 1019.568908691406 1834.780151367188 1027.590454101562 1835.779541015625 1036.329711914062 C 1836.325927734375 1041.107055664062 1835.929321289062 1045.848388671875 1834.600708007812 1050.421997070312 C 1833.317504882812 1054.839477539062 1831.22314453125 1058.916015625 1828.376098632812 1062.538330078125 C 1825.529663085938 1066.160034179688 1822.074462890625 1069.144653320312 1818.106567382812 1071.409545898438 C 1813.999755859375 1073.753662109375 1809.519653320312 1075.22021484375 1804.790893554688 1075.768432617188 C 1803.441650390625 1075.9248046875 1802.073486328125 1076.004028320312 1800.724365234375 1076.004028320312 Z" stroke="none"/>
      <path d="M 1800.768676757812 1005.780151367188 C 1799.457885742188 1005.780151367188 1798.12841796875 1005.857177734375 1796.8173828125 1006.009155273438 C 1792.223266601562 1006.541748046875 1787.871215820312 1007.96630859375 1783.882202148438 1010.2431640625 C 1780.02685546875 1012.443725585938 1776.66943359375 1015.34423828125 1773.903076171875 1018.863891601562 C 1771.135620117188 1022.385131835938 1769.099853515625 1026.34765625 1767.8525390625 1030.641479492188 C 1766.561157226562 1035.087036132812 1766.175659179688 1039.6962890625 1766.706909179688 1044.341186523438 C 1767.678466796875 1052.83642578125 1771.702758789062 1060.633422851562 1778.038330078125 1066.2958984375 C 1784.321411132812 1071.911376953125 1792.378051757812 1075.004028320312 1800.724365234375 1075.004028320312 C 1802.035278320312 1075.004028320312 1803.364624023438 1074.927001953125 1804.675659179688 1074.775024414062 C 1809.269775390625 1074.242431640625 1813.621826171875 1072.81787109375 1817.61083984375 1070.541015625 C 1821.466186523438 1068.340576171875 1824.823608398438 1065.440185546875 1827.589965820312 1061.92041015625 C 1830.357421875 1058.399291992188 1832.39306640625 1054.436767578125 1833.640380859375 1050.142944335938 C 1834.931884765625 1045.697509765625 1835.317260742188 1041.088256835938 1834.786010742188 1036.443359375 C 1833.814453125 1027.947875976562 1829.790283203125 1020.15087890625 1823.454711914062 1014.488403320312 C 1817.171752929688 1008.872802734375 1809.114990234375 1005.780151367188 1800.768676757812 1005.780151367188 M 1800.768676757812 1003.780151367188 C 1818.9482421875 1003.780151367188 1834.638061523438 1017.546875 1836.773071289062 1036.216064453125 C 1839.070434570312 1056.302490234375 1824.802856445312 1074.455078125 1804.906005859375 1076.76171875 C 1803.502197265625 1076.924438476562 1802.1044921875 1077.004028320312 1800.724365234375 1077.004028320312 C 1782.544921875 1077.004028320312 1766.85498046875 1063.2373046875 1764.719848632812 1044.568481445312 C 1762.422607421875 1024.482055664062 1776.690063476562 1006.3291015625 1796.587036132812 1004.0224609375 C 1797.990966796875 1003.859741210938 1799.388671875 1003.780151367188 1800.768676757812 1003.780151367188 Z" stroke="none" fill="#2a3c5f"/>
    </g>
    <g id="Ellipse_1_copy" data-name="Ellipse 1 copy" transform="translate(-47.016 2375.014)" fill="rgba(29,33,62,0)" stroke-linejoin="round">
      <path d="M 1781.229614257812 1048.205810546875 C 1772.637939453125 1048.205810546875 1764.344970703125 1045.022705078125 1757.878051757812 1039.24267578125 C 1751.359252929688 1033.416259765625 1747.218872070312 1025.394897460938 1746.219482421875 1016.656127929688 C 1745.673095703125 1011.878845214844 1746.06982421875 1007.137573242188 1747.3984375 1002.564086914062 C 1748.681640625 998.1466064453125 1750.776000976562 994.070068359375 1753.622924804688 990.4476318359375 C 1756.469482421875 986.8259887695312 1759.924682617188 983.8412475585938 1763.892578125 981.576416015625 C 1767.999389648438 979.2322998046875 1772.4794921875 977.7657470703125 1777.208251953125 977.217529296875 C 1778.557495117188 977.0611572265625 1779.925537109375 976.9818725585938 1781.274658203125 976.9818725585938 C 1789.867065429688 976.9818725585938 1798.160522460938 980.1649169921875 1804.627197265625 985.9447021484375 C 1811.145874023438 991.7708740234375 1815.286254882812 999.7923583984375 1816.28564453125 1008.531555175781 C 1816.83203125 1013.308898925781 1816.435424804688 1018.050231933594 1815.106811523438 1022.623779296875 C 1813.823486328125 1027.041259765625 1811.729248046875 1031.117797851562 1808.882202148438 1034.740234375 C 1806.03564453125 1038.361938476562 1802.58056640625 1041.346557617188 1798.612548828125 1043.611328125 C 1794.505737304688 1045.955444335938 1790.025634765625 1047.421997070312 1785.296875 1047.970092773438 C 1783.947387695312 1048.12646484375 1782.578979492188 1048.205810546875 1781.229614257812 1048.205810546875 Z" stroke="none"/>
      <path d="M 1781.274658203125 977.9818115234375 C 1779.9638671875 977.9818115234375 1778.634399414062 978.058837890625 1777.323486328125 978.2108154296875 C 1772.729370117188 978.743408203125 1768.377319335938 980.16796875 1764.388305664062 982.44482421875 C 1760.532958984375 984.6453857421875 1757.175537109375 987.5458984375 1754.4091796875 991.0655517578125 C 1751.641723632812 994.586669921875 1749.606079101562 998.5491943359375 1748.358642578125 1002.843078613281 C 1747.067260742188 1007.288513183594 1746.681762695312 1011.897705078125 1747.213012695312 1016.542541503906 C 1748.184448242188 1025.037353515625 1752.208740234375 1032.834228515625 1758.544555664062 1038.4970703125 C 1764.827758789062 1044.113037109375 1772.884155273438 1047.205810546875 1781.229614257812 1047.205810546875 C 1782.54052734375 1047.205810546875 1783.870239257812 1047.128662109375 1785.181762695312 1046.976684570312 C 1789.775756835938 1046.444213867188 1794.127807617188 1045.019775390625 1798.116943359375 1042.742919921875 C 1801.97216796875 1040.54248046875 1805.32958984375 1037.64208984375 1808.095947265625 1034.122314453125 C 1810.863403320312 1030.60107421875 1812.899169921875 1026.638671875 1814.146484375 1022.344787597656 C 1815.437866210938 1017.899291992188 1815.823364257812 1013.2900390625 1815.292114257812 1008.645141601562 C 1814.320556640625 1000.14990234375 1810.29638671875 992.352783203125 1803.960815429688 986.6903076171875 C 1797.677612304688 981.0745849609375 1789.620849609375 977.9818115234375 1781.274658203125 977.9818115234375 M 1781.274658203125 975.9818115234375 C 1799.4541015625 975.9818115234375 1815.144165039062 989.7491455078125 1817.279174804688 1008.417907714844 C 1819.576416015625 1028.504150390625 1805.308959960938 1046.6572265625 1785.411987304688 1048.96337890625 C 1765.515014648438 1051.2705078125 1747.52294921875 1036.856201171875 1745.225952148438 1016.769775390625 C 1742.928833007812 996.683837890625 1757.196166992188 978.53076171875 1777.093139648438 976.22412109375 C 1778.4970703125 976.0614013671875 1779.89453125 975.9818115234375 1781.274658203125 975.9818115234375 Z" stroke="none" fill="#91ab61"/>
    </g>
  </g>
</svg>
