<svg id="user" xmlns="http://www.w3.org/2000/svg" width="18.095" height="21.688" viewBox="0 0 18.095 21.688">
  <path id="Path_4988" data-name="Path 4988" d="M92.256,10.448a5.055,5.055,0,0,0,3.694-1.53,5.055,5.055,0,0,0,1.53-3.693,5.055,5.055,0,0,0-1.53-3.693,5.223,5.223,0,0,0-7.387,0,5.055,5.055,0,0,0-1.53,3.693,5.055,5.055,0,0,0,1.53,3.694A5.056,5.056,0,0,0,92.256,10.448ZM89.461,2.429a3.951,3.951,0,0,1,5.589,0,3.777,3.777,0,0,1,1.158,2.795A3.776,3.776,0,0,1,95.05,8.019a3.951,3.951,0,0,1-5.589,0A3.776,3.776,0,0,1,88.3,5.224,3.776,3.776,0,0,1,89.461,2.429Zm0,0" transform="translate(-83.345 0)" fill="#081839"/>
  <path id="Path_4989" data-name="Path 4989" d="M18.051,253.517a12.9,12.9,0,0,0-.176-1.37,10.8,10.8,0,0,0-.337-1.378,6.806,6.806,0,0,0-.567-1.285,4.845,4.845,0,0,0-.854-1.113,3.766,3.766,0,0,0-1.227-.771,4.24,4.24,0,0,0-1.566-.283,1.59,1.59,0,0,0-.849.36c-.254.166-.552.358-.884.57a5.069,5.069,0,0,1-1.144.5,4.444,4.444,0,0,1-2.8,0,5.053,5.053,0,0,1-1.144-.5c-.329-.21-.627-.4-.885-.571a1.588,1.588,0,0,0-.849-.36A4.235,4.235,0,0,0,3.2,247.6a3.763,3.763,0,0,0-1.227.771,4.845,4.845,0,0,0-.854,1.113,6.82,6.82,0,0,0-.566,1.285,10.823,10.823,0,0,0-.337,1.378,12.816,12.816,0,0,0-.176,1.371c-.029.414-.043.845-.043,1.281a3.6,3.6,0,0,0,1.07,2.725,3.85,3.85,0,0,0,2.756,1.005H14.269a3.851,3.851,0,0,0,2.756-1.005,3.6,3.6,0,0,0,1.07-2.725c0-.437-.015-.868-.044-1.281Zm-1.9,3.085a2.592,2.592,0,0,1-1.88.655H3.826a2.592,2.592,0,0,1-1.88-.655,2.352,2.352,0,0,1-.675-1.8c0-.406.013-.808.04-1.193a11.558,11.558,0,0,1,.159-1.234,9.545,9.545,0,0,1,.3-1.215,5.551,5.551,0,0,1,.461-1.045,3.591,3.591,0,0,1,.628-.823,2.5,2.5,0,0,1,.816-.508,2.925,2.925,0,0,1,1-.193c.045.024.124.069.252.153.261.17.562.365.9.577a6.3,6.3,0,0,0,1.436.642,5.714,5.714,0,0,0,3.581,0,6.305,6.305,0,0,0,1.437-.642c.341-.218.633-.406.895-.577.128-.084.208-.129.252-.153a2.926,2.926,0,0,1,1,.193,2.5,2.5,0,0,1,.816.508,3.58,3.58,0,0,1,.628.823,5.533,5.533,0,0,1,.461,1.045,9.525,9.525,0,0,1,.3,1.215,11.657,11.657,0,0,1,.159,1.235h0c.027.384.041.785.041,1.192a2.352,2.352,0,0,1-.675,1.8Zm0,0" transform="translate(0 -236.84)" fill="#081839"/>
</svg>
