<svg id="white-rings" xmlns="http://www.w3.org/2000/svg" width="97.004" height="101.004" viewBox="0 0 97.004 101.004">
  <g id="Ellipse_1_copy_3" data-name="Ellipse 1 copy 3" transform="translate(-125.992 -6298.998)" fill="rgba(29,33,62,0)" stroke-linejoin="round">
    <path d="M 185.4807739257812 6372.26416015625 C 181.9085693359375 6372.26416015625 178.3577728271484 6371.74169921875 174.9270172119141 6370.71142578125 C 171.5234527587891 6369.689453125 168.2964019775391 6368.18505859375 165.3355255126953 6366.2412109375 C 159.1942901611328 6362.20849609375 154.4872741699219 6356.4814453125 151.7233581542969 6349.6796875 C 149.8956909179688 6345.18212890625 149.0071868896484 6340.46337890625 149.0824890136719 6335.654296875 C 149.1552429199219 6331.00830078125 150.1196136474609 6326.47021484375 151.9488525390625 6322.1650390625 C 153.7966156005859 6317.81640625 156.4323425292969 6313.9267578125 159.7828369140625 6310.603515625 C 163.2518615722656 6307.16259765625 167.3372192382812 6304.4853515625 171.9253845214844 6302.646484375 C 176.3101348876953 6300.888671875 180.9085998535156 6299.99755859375 185.5931091308594 6299.99755859375 C 189.1653137207031 6299.99755859375 192.7161254882812 6300.52001953125 196.1469268798828 6301.55029296875 C 199.5505065917969 6302.57275390625 202.777587890625 6304.07666015625 205.738525390625 6306.02099609375 C 211.8798522949219 6310.0537109375 216.5869140625 6315.7802734375 219.3508605957031 6322.58203125 C 221.1785278320312 6327.07958984375 222.0670318603516 6331.798828125 221.9917144775391 6336.60791015625 C 221.9189758300781 6341.25341796875 220.9545745849609 6345.7919921875 219.1253509521484 6350.0966796875 C 217.2775726318359 6354.4453125 214.641845703125 6358.3349609375 211.2913513183594 6361.658203125 C 207.8223266601562 6365.09912109375 203.7369842529297 6367.7763671875 199.1487884521484 6369.615234375 C 194.7639465332031 6371.373046875 190.1653747558594 6372.26416015625 185.4807739257812 6372.26416015625 Z" stroke="none"/>
    <path d="M 185.4807891845703 6371.26416015625 C 190.037353515625 6371.26416015625 194.5107421875 6370.39697265625 198.7767486572266 6368.68701171875 C 203.2400665283203 6366.89794921875 207.2136535644531 6364.29443359375 210.5871429443359 6360.9482421875 C 213.8451538085938 6357.716796875 216.4081726074219 6353.9345703125 218.2050018310547 6349.70556640625 C 219.9834899902344 6345.52001953125 220.9211273193359 6341.1083984375 220.9918518066406 6336.59228515625 C 221.0650482177734 6331.91796875 220.2012481689453 6327.3310546875 218.4244384765625 6322.95849609375 C 215.7371826171875 6316.345703125 211.1606750488281 6310.77734375 205.1896514892578 6306.85693359375 C 202.3095092773438 6304.9658203125 199.1703186035156 6303.50244140625 195.8592987060547 6302.50830078125 C 192.5218658447266 6301.505859375 189.0678253173828 6300.99755859375 185.5931091308594 6300.99755859375 C 181.0366363525391 6300.99755859375 176.5633544921875 6301.86474609375 172.2974395751953 6303.57470703125 C 167.8341522216797 6305.36376953125 163.8605499267578 6307.96728515625 160.4870452880859 6311.3134765625 C 157.2290344238281 6314.544921875 154.666015625 6318.32763671875 152.8692016601562 6322.55615234375 C 151.0907135009766 6326.74169921875 150.1530914306641 6331.15380859375 150.0823669433594 6335.669921875 C 150.0091705322266 6340.34375 150.8729858398438 6344.9306640625 152.6497955322266 6349.30322265625 C 155.3370208740234 6355.91650390625 159.9134674072266 6361.484375 165.8843994140625 6365.4052734375 C 168.7644958496094 6367.29638671875 171.9036407470703 6368.75927734375 175.2146453857422 6369.75390625 C 178.5520324707031 6370.755859375 182.0060577392578 6371.26416015625 185.4807891845703 6371.26416015625 M 185.4807891845703 6373.26416015625 C 170.6720581054688 6373.26416015625 156.6664123535156 6364.5009765625 150.7969207763672 6350.05615234375 C 143.0737762451172 6331.05078125 152.3668060302734 6309.40869140625 171.5533447265625 6301.71826171875 C 176.1579132080078 6299.87255859375 180.9169311523438 6298.99755859375 185.5931091308594 6298.99755859375 C 200.4018402099609 6298.99755859375 214.4077911376953 6307.76123046875 220.2772979736328 6322.20556640625 C 228.0004425048828 6341.21142578125 218.7074127197266 6362.85302734375 199.5208435058594 6370.54345703125 C 194.9162902832031 6372.38916015625 190.156982421875 6373.26416015625 185.4807891845703 6373.26416015625 Z" stroke="none" fill="#fff"/>
  </g>
  <g id="Ellipse_1_copy_3-2" data-name="Ellipse 1 copy 3" transform="translate(-125.992 -6298.998)" fill="rgba(29,33,62,0)" stroke-linejoin="round">
    <path d="M 163.395263671875 6399.001953125 C 159.8230438232422 6399.001953125 156.272216796875 6398.4794921875 152.8413848876953 6397.44921875 C 149.4377593994141 6396.42724609375 146.2106475830078 6394.92333984375 143.2496795654297 6392.97900390625 C 137.1082763671875 6388.9462890625 132.4011688232422 6383.2197265625 129.6372375488281 6376.41796875 C 127.8095779418945 6371.92041015625 126.9210586547852 6367.201171875 126.9963760375977 6362.39208984375 C 127.0691299438477 6357.74609375 128.0335235595703 6353.2080078125 129.8627777099609 6348.90283203125 C 131.7105407714844 6344.5546875 134.3462829589844 6340.66455078125 137.6967620849609 6337.34130859375 C 141.165771484375 6333.90087890625 145.2511138916016 6331.2236328125 149.8393096923828 6329.384765625 C 154.2242736816406 6327.626953125 158.8229522705078 6326.73583984375 163.5076599121094 6326.73583984375 C 167.0795135498047 6326.73583984375 170.630126953125 6327.25830078125 174.0608673095703 6328.28857421875 C 177.4644012451172 6329.31103515625 180.6914672851562 6330.81494140625 183.6524658203125 6332.75927734375 C 189.7940368652344 6336.7919921875 194.5011291503906 6342.5185546875 197.2648468017578 6349.31982421875 C 199.0925140380859 6353.8173828125 199.9810180664062 6358.53662109375 199.9056701660156 6363.345703125 C 199.8329010009766 6367.99169921875 198.8684692382812 6372.5302734375 197.0391845703125 6376.8349609375 C 195.19140625 6381.18359375 192.5556793212891 6385.07373046875 189.2052307128906 6388.396484375 C 185.7362213134766 6391.83740234375 181.6509246826172 6394.5146484375 177.0627899169922 6396.353515625 C 172.6781158447266 6398.11083984375 168.0796966552734 6399.001953125 163.395263671875 6399.001953125 Z" stroke="none"/>
    <path d="M 163.395263671875 6398.001953125 C 167.9516448974609 6398.001953125 172.4248962402344 6397.13525390625 176.6907196044922 6395.42529296875 C 181.1539764404297 6393.63623046875 185.1275329589844 6391.03271484375 188.5010070800781 6387.6865234375 C 191.7589721679688 6384.455078125 194.3219909667969 6380.6728515625 196.1188201904297 6376.44384765625 C 197.8973693847656 6372.25830078125 198.8350524902344 6367.84619140625 198.9058074951172 6363.330078125 C 198.9790191650391 6358.65576171875 198.1152191162109 6354.06884765625 196.3384094238281 6349.6962890625 C 193.6513977050781 6343.08349609375 189.0748596191406 6337.51611328125 183.1035919189453 6333.59521484375 C 180.223388671875 6331.7041015625 177.0841979980469 6330.24072265625 173.7732238769531 6329.24658203125 C 170.4358520507812 6328.244140625 166.9820098876953 6327.73583984375 163.5076446533203 6327.73583984375 C 158.9510040283203 6327.73583984375 154.4774932861328 6328.60302734375 150.2113494873047 6330.31298828125 C 145.7480316162109 6332.10205078125 141.7744445800781 6334.70556640625 138.4009704589844 6338.0517578125 C 135.1429595947266 6341.283203125 132.5799560546875 6345.0654296875 130.7831268310547 6349.2939453125 C 129.0046081542969 6353.4794921875 128.0669708251953 6357.8916015625 127.9962539672852 6362.40771484375 C 127.9230499267578 6367.08154296875 128.7868499755859 6371.6689453125 130.5636596679688 6376.04150390625 C 133.2508850097656 6382.654296875 137.8274536132812 6388.22216796875 143.7985687255859 6392.14306640625 C 146.6787414550781 6394.0341796875 149.8179473876953 6395.49755859375 153.1290130615234 6396.49169921875 C 156.4664764404297 6397.494140625 159.9205322265625 6398.001953125 163.395263671875 6398.001953125 M 163.395263671875 6400.001953125 C 148.5865173339844 6400.001953125 134.580322265625 6391.23876953125 128.7108001708984 6376.79443359375 C 120.9876480102539 6357.7880859375 130.2806854248047 6336.14697265625 149.4672546386719 6328.45654296875 C 168.6537017822266 6320.7666015625 190.4682922363281 6329.93798828125 198.1912841796875 6348.943359375 C 205.9143371582031 6367.94921875 196.6213989257812 6389.59130859375 177.4348297119141 6397.28173828125 C 172.8302612304688 6399.12744140625 168.0714569091797 6400.001953125 163.395263671875 6400.001953125 Z" stroke="none" fill="#fff"/>
  </g>
</svg>
